<svg aria-hidden="true" style="position: absolute; width: 0; height: 0; overflow: hidden;" version="1.1" xmlns="http://www.w3.org/2000/svg" xmlns:xlink="http://www.w3.org/1999/xlink">
<defs>
<symbol id="icon-quotes" viewBox="0 0 40 32">
<path fill="#ff6b08" style="fill: var(--color1, #ff6b08)" d="M35.496 1.448l0.994 1.546c-6.845 4.49-10.267 8.979-10.267 13.469 0 2.282 0.994 3.606 2.981 3.974l4.637-4.306c1.472 0.515 2.797 1.472 3.974 2.87 1.251 1.325 1.877 3.054 1.877 5.189s-0.846 3.974-2.539 5.52c-1.693 1.472-3.938 2.208-6.734 2.208-2.723 0-5.005-0.92-6.845-2.76-1.766-1.914-2.65-4.526-2.65-7.838 0-7.213 4.858-13.837 14.573-19.872zM14.741 1.448l0.994 1.546c-6.845 4.49-10.267 8.979-10.267 13.469 0 2.282 0.994 3.606 2.981 3.974l4.637-4.306c1.472 0.515 2.797 1.472 3.974 2.87 1.251 1.325 1.877 3.054 1.877 5.189s-0.846 3.974-2.539 5.52c-1.693 1.472-3.938 2.208-6.734 2.208-2.723 0-5.005-0.92-6.845-2.76-1.766-1.914-2.65-4.526-2.65-7.838 0-7.213 4.858-13.837 14.573-19.872z"></path>
</symbol>
</defs>
</svg>
