<svg aria-hidden="true" style="position: absolute; width: 0; height: 0; overflow: hidden;" version="1.1" xmlns="http://www.w3.org/2000/svg" xmlns:xlink="http://www.w3.org/1999/xlink">
<defs>
<symbol id="icon-hand" viewBox="0 0 35 32">
  <path
      d="M12.696 31.478h14.087c1.299 0 2.41-0.783 2.88-1.91l4.727-11.035c0.141-0.36 0.219-0.736 0.219-1.143v-3.13c0-1.722-1.409-3.13-3.13-3.13h-9.877l1.487-7.153 0.047-0.501c0-0.642-0.266-1.237-0.689-1.659l-1.659-1.643-10.315 10.315c-0.563 0.563-0.908 1.346-0.908 2.207v15.652c0 1.722 1.409 3.13 3.13 3.13zM12.696 12.696l6.793-6.793-2.097 8.358h14.087v3.13l-4.696 10.957h-14.087v-15.652zM0.174 12.696h6.261v18.783h-6.261v-18.783z"
  ></path>
</symbol>
</defs>
</svg>