<svg aria-hidden="true" style="position: absolute; width: 0; height: 0; overflow: hidden;" version="1.1" xmlns="http://www.w3.org/2000/svg" xmlns:xlink="http://www.w3.org/1999/xlink">
<defs>
<symbol id="star-active-empty" viewBox="0 0 34 32">
<path fill="none" stroke="#ff6b08" style="stroke: var(--color1, #ff6b08)" stroke-linejoin="miter" stroke-linecap="butt" stroke-miterlimit="4" stroke-width="2" d="M17 3.236l3.090 9.511h10l-8.090 5.878 0.225 0.691 2.866 8.82-8.090-5.878-8.090 5.878 3.090-9.511-8.090-5.878h10l3.090-9.511z"></path>
</symbol>
<symbol id="star-active" viewBox="0 0 34 32">
<path fill="#ff6b08" style="fill: var(--color1, #ff6b08)" d="M17 0l3.817 11.747h12.351l-9.992 7.26 3.817 11.747-9.992-7.26-9.992 7.26 3.817-11.747-9.992-7.26h12.351l3.817-11.747z"></path>
</symbol>
<symbol id="empty-star" viewBox="0 0 34 32">
<path fill="none" stroke="#a6abb9" style="stroke: var(--color2, #a6abb9)" stroke-linejoin="miter" stroke-linecap="butt" stroke-miterlimit="4" stroke-width="2" d="M17 3.236l3.090 9.511h10l-8.090 5.878 0.225 0.691 2.866 8.82-8.090-5.878-8.090 5.878 3.090-9.511-8.090-5.878h10l3.090-9.511z"></path>
</symbol>
</defs>
</svg>
