<svg aria-hidden="true" style="position: absolute; width: 0; height: 0; overflow: hidden;" version="1.1" xmlns="http://www.w3.org/2000/svg" xmlns:xlink="http://www.w3.org/1999/xlink">
<defs>
<symbol id="icon-logo" viewBox="0 0 60 32">
<path d="M0.896 0h12.757c3.954 0 6.912 0.54 8.875 1.621 1.991 1.052 2.987 2.844 2.987 5.376 0 3.897-2.347 6.229-7.040 6.997v0.085c5.689 0.711 8.533 3.186 8.533 7.424 0 3.1-1.166 5.276-3.499 6.528-2.332 1.223-5.689 1.835-10.069 1.835h-12.544v-0.811h2.773v-28.245h-2.773v-0.811zM11.989 14.763v14.293h2.005c1.564 0 2.66-0.54 3.285-1.621s0.939-2.674 0.939-4.779v-2.261c0-1.877-0.384-3.285-1.152-4.224s-2.133-1.408-4.096-1.408h-0.981zM11.989 0.811v13.141h1.109c1.479 0 2.503-0.441 3.072-1.323 0.597-0.91 0.896-2.29 0.896-4.139v-2.005c0-2.105-0.256-3.57-0.768-4.395-0.512-0.853-1.493-1.28-2.944-1.28h-1.365zM42.12 14.763h-2.261v14.293h2.773v0.811h-13.867v-0.811h2.773v-28.245h-2.773v-0.811h12.885c3.698 0 6.315 0.199 7.851 0.597 1.564 0.37 2.66 0.825 3.285 1.365 1.365 1.109 2.048 2.873 2.048 5.291s-0.597 4.153-1.792 5.205c-1.195 1.024-3.015 1.636-5.461 1.835v0.128c2.304 0.313 3.911 0.996 4.821 2.048s1.365 2.816 1.365 5.291v2.261c0 1.479 0.071 2.475 0.213 2.987 0.171 0.512 0.512 0.768 1.024 0.768s0.91-0.228 1.195-0.683c0.313-0.484 0.597-1.479 0.853-2.987l0.725 0.085c-0.313 2.418-0.868 4.039-1.664 4.864-0.768 0.825-2.318 1.237-4.651 1.237s-3.996-0.54-4.992-1.621c-0.967-1.109-1.451-3.172-1.451-6.187v-3.115c0-1.593-0.213-2.759-0.64-3.499-0.398-0.74-1.152-1.109-2.261-1.109zM39.858 0.811v13.141h1.365c1.621 0 2.816-0.498 3.584-1.493 0.796-0.996 1.195-2.617 1.195-4.864v-1.237c0-2.247-0.384-3.726-1.152-4.437-0.74-0.74-1.934-1.109-3.584-1.109h-1.408z"></path>
</symbol>

<symbol id="icon-library" viewBox="0 0 41 32">
<path fill="#a6abb9" style="fill: var(--color1, #a6abb9)" d="M37.647 0.941c-2.089-0.659-4.386-0.941-6.588-0.941-3.671 0-7.624 0.753-10.353 2.824-2.729-2.071-6.682-2.824-10.353-2.824s-7.624 0.753-10.353 2.824v27.576c0 0.471 0.471 0.941 0.941 0.941 0.188 0 0.282-0.094 0.471-0.094 2.541-1.224 6.212-2.071 8.941-2.071 3.671 0 7.624 0.753 10.353 2.824 2.541-1.6 7.153-2.824 10.353-2.824 3.106 0 6.306 0.565 8.941 1.976 0.188 0.094 0.282 0.094 0.471 0.094 0.471 0 0.941-0.471 0.941-0.941v-27.482c-1.129-0.847-2.353-1.412-3.765-1.882zM37.647 26.353c-2.071-0.659-4.329-0.941-6.588-0.941-3.2 0-7.812 1.224-10.353 2.824v-21.647c2.541-1.6 7.153-2.824 10.353-2.824 2.259 0 4.518 0.282 6.588 0.941v21.647z"></path>
<path fill="#a6abb9" style="fill: var(--color1, #a6abb9)" d="M31.059 11.294c1.656 0 3.256 0.169 4.706 0.489v-2.861c-1.487-0.282-3.087-0.452-4.706-0.452-3.2 0-6.099 0.546-8.471 1.562v3.125c2.127-1.205 5.082-1.864 8.471-1.864z"></path>
<path fill="#a6abb9" style="fill: var(--color1, #a6abb9)" d="M22.588 15.040v3.125c2.127-1.205 5.082-1.864 8.471-1.864 1.656 0 3.256 0.169 4.706 0.489v-2.861c-1.487-0.282-3.087-0.452-4.706-0.452-3.2 0-6.099 0.565-8.471 1.562z"></path>
<path fill="#a6abb9" style="fill: var(--color1, #a6abb9)" d="M31.059 18.503c-3.2 0-6.099 0.546-8.471 1.562v3.125c2.127-1.205 5.082-1.864 8.471-1.864 1.656 0 3.256 0.169 4.706 0.489v-2.861c-1.487-0.301-3.087-0.452-4.706-0.452z"></path>
</symbol>

<symbol id="icon-home" viewBox="0 0 38 32">
<path fill="#a6abb9" style="fill: var(--color1, #a6abb9)" d="M18.824 5.064l9.412 8.471v14.701h-3.765v-11.294h-11.294v11.294h-3.765v-14.701l9.412-8.471zM18.824 0l-18.824 16.941h5.647v15.059h11.294v-11.294h3.765v11.294h11.294v-15.059h5.647l-18.824-16.941z"></path>
</symbol>

<symbol id="icon-calendar" viewBox="0 0 32 32">
<path fill="#a6abb9" style="fill: var(--color1, #a6abb9)" d="M28.25 2.5h-1.5v-2.5h-2.5v2.5h-16.5v-2.5h-2.5v2.5h-1.5c-2.068 0-3.75 1.682-3.75 3.75v22c0 2.068 1.682 3.75 3.75 3.75h24.5c2.068 0 3.75-1.682 3.75-3.75v-22c0-2.068-1.682-3.75-3.75-3.75zM29.5 28.25c0 0.689-0.561 1.25-1.25 1.25h-24.5c-0.689 0-1.25-0.561-1.25-1.25v-16.5h27v16.5zM29.5 9.25h-27v-3c0-0.689 0.561-1.25 1.25-1.25h1.5v2.5h2.5v-2.5h16.5v2.5h2.5v-2.5h1.5c0.689 0 1.25 0.561 1.25 1.25v3z"></path>
<path fill="#a6abb9" style="fill: var(--color1, #a6abb9)" d="M7.25 14.375h-2.5v2.5h2.5v-2.5z"></path>
<path fill="#a6abb9" style="fill: var(--color1, #a6abb9)" d="M12.25 14.375h-2.5v2.5h2.5v-2.5z"></path>
<path fill="#a6abb9" style="fill: var(--color1, #a6abb9)" d="M17.25 14.375h-2.5v2.5h2.5v-2.5z"></path>
<path fill="#a6abb9" style="fill: var(--color1, #a6abb9)" d="M22.25 14.375h-2.5v2.5h2.5v-2.5z"></path>
<path fill="#a6abb9" style="fill: var(--color1, #a6abb9)" d="M27.25 14.375h-2.5v2.5h2.5v-2.5z"></path>
</symbol>

<symbol id="icon-polygon" viewBox="0 0 69 32">
<path d="M34.667 32l-30.022-28h60.045l-30.022 28z"></path>
</symbol>

</defs>
</svg>